<svg width="42" height="40" viewBox="0 0 42 40" fill="none" xmlns="http://www.w3.org/2000/svg">
<path fill-rule="evenodd" clip-rule="evenodd" d="M13.0638 1.77667C15.1165 1.68667 15.771 1.66667 21 1.66667C26.229 1.66667 26.8835 1.68834 28.9345 1.77667C30.9855 1.86501 32.3855 2.17667 33.6105 2.62834C34.8932 3.09001 36.057 3.81167 37.0195 4.74501C37.9995 5.66001 38.7555 6.76667 39.2385 7.99001C39.7145 9.15667 40.04 10.49 40.1345 12.44C40.229 14.3983 40.25 15.0217 40.25 20C40.25 24.98 40.2272 25.6033 40.1345 27.5583C40.0418 29.5083 39.7145 30.8417 39.2385 32.0083C38.7555 33.2318 37.9982 34.3403 37.0195 35.2567C36.057 36.19 34.8932 36.91 33.6105 37.37C32.3855 37.8233 30.9855 38.1333 28.938 38.2233C26.8835 38.3133 26.229 38.3333 21 38.3333C15.771 38.3333 15.1165 38.3117 13.0638 38.2233C11.0163 38.135 9.61625 37.8233 8.39125 37.37C7.10661 36.9099 5.94269 36.1888 4.9805 35.2567C4.00116 34.3411 3.2433 33.2331 2.75975 32.01C2.2855 30.8433 1.96 29.51 1.8655 27.56C1.771 25.6017 1.75 24.9783 1.75 20C1.75 15.02 1.77275 14.3967 1.8655 12.4433C1.95825 10.49 2.2855 9.15667 2.75975 7.99001C3.24401 6.76681 4.00246 5.65886 4.98225 4.74334C5.94307 3.81084 7.10583 3.08908 8.3895 2.62834C9.6145 2.17667 11.0163 1.86667 13.0638 1.77667ZM28.7787 5.07667C26.7487 4.98834 26.1397 4.97001 21 4.97001C15.8602 4.97001 15.2512 4.98834 13.2212 5.07667C11.3435 5.15834 10.325 5.45667 9.646 5.70834C8.74825 6.04167 8.106 6.43667 7.43225 7.07834C6.79358 7.67009 6.30207 8.39048 5.99375 9.18667C5.7295 9.83334 5.41625 10.8033 5.3305 12.5917C5.23775 14.525 5.2185 15.105 5.2185 20C5.2185 24.895 5.23775 25.475 5.3305 27.4083C5.41625 29.1967 5.7295 30.1667 5.99375 30.8133C6.30175 31.6083 6.7935 32.33 7.43225 32.9217C8.0535 33.53 8.81125 33.9983 9.646 34.2917C10.325 34.5433 11.3435 34.8417 13.2212 34.9233C15.2512 35.0117 15.8585 35.03 21 35.03C26.1415 35.03 26.7487 35.0117 28.7787 34.9233C30.6565 34.8417 31.675 34.5433 32.354 34.2917C33.2518 33.9583 33.894 33.5633 34.5677 32.9217C35.2065 32.33 35.6982 31.6083 36.0063 30.8133C36.2705 30.1667 36.5838 29.1967 36.6695 27.4083C36.7622 25.475 36.7815 24.895 36.7815 20C36.7815 15.105 36.7622 14.525 36.6695 12.5917C36.5838 10.8033 36.2705 9.83334 36.0063 9.18667C35.6562 8.33167 35.2415 7.72001 34.5677 7.07834C33.9464 6.47012 33.19 6.00202 32.354 5.70834C31.675 5.45667 30.6565 5.15834 28.7787 5.07667ZM18.5413 25.6517C19.9144 26.1961 21.4434 26.2695 22.8671 25.8595C24.2908 25.4496 25.5209 24.5815 26.3473 23.4037C27.1737 22.226 27.5451 20.8115 27.3981 19.4018C27.2511 17.9922 26.5948 16.675 25.5413 15.675C24.8697 15.0358 24.0576 14.5464 23.1636 14.2419C22.2695 13.9375 21.3158 13.8256 20.3709 13.9144C19.426 14.0031 18.5135 14.2903 17.6992 14.7552C16.8848 15.2201 16.1888 15.8512 15.6613 16.6031C15.1338 17.3549 14.7878 18.2088 14.6484 19.1033C14.509 19.9977 14.5795 20.9105 14.8549 21.7759C15.1304 22.6412 15.6038 23.4377 16.2413 24.1079C16.8787 24.7781 17.6642 25.3053 18.5413 25.6517ZM14.0035 13.3367C14.9223 12.4616 16.0131 11.7675 17.2135 11.2939C18.414 10.8204 19.7006 10.5766 21 10.5766C22.2994 10.5766 23.586 10.8204 24.7865 11.2939C25.9869 11.7675 27.0777 12.4616 27.9965 13.3367C28.9153 14.2117 29.6441 15.2505 30.1414 16.3938C30.6386 17.5371 30.8945 18.7625 30.8945 20C30.8945 21.2375 30.6386 22.4629 30.1414 23.6062C29.6441 24.7495 28.9153 25.7883 27.9965 26.6633C26.1409 28.4306 23.6242 29.4234 21 29.4234C18.3758 29.4234 15.8591 28.4306 14.0035 26.6633C12.1479 24.8961 11.1055 22.4992 11.1055 20C11.1055 17.5008 12.1479 15.1039 14.0035 13.3367ZM33.089 11.98C33.3167 11.7755 33.499 11.5295 33.625 11.2566C33.7511 10.9838 33.8184 10.6896 33.823 10.3916C33.8275 10.0935 33.7693 9.79758 33.6516 9.52136C33.5339 9.24513 33.3593 8.99419 33.1379 8.7834C32.9166 8.57262 32.6531 8.40627 32.3631 8.2942C32.073 8.18214 31.7623 8.12663 31.4494 8.13098C31.1364 8.13532 30.8275 8.19943 30.541 8.3195C30.2546 8.43957 29.9963 8.61316 29.7815 8.83001C29.3638 9.25172 29.1351 9.81187 29.144 10.3916C29.1529 10.9712 29.3986 11.5248 29.829 11.9347C30.2595 12.3447 30.8407 12.5787 31.4494 12.5872C32.058 12.5956 32.6462 12.3778 33.089 11.98Z" fill="#F8F8F8"/>
</svg>
