<svg width="81" height="36" viewBox="0 0 81 36" fill="none" xmlns="http://www.w3.org/2000/svg">
<path d="M8.5 17.3C9.3 17.4333 9.91667 17.5833 10.35 17.75C10.8167 17.8833 11.05 18.1 11.05 18.4V33.5C11.05 34.1 10.6167 34.5 9.75 34.7C8.91667 34.9 8.1 35 7.3 35H0.5V0.499998H6.15C7.18333 0.499998 8.16667 0.666665 9.1 0.999998C10.0667 1.33333 10.55 1.96666 10.55 2.9L10.5 3.4L9.05 16.15C9.05 16.5167 9.01667 16.7667 8.95 16.9C8.88333 17.0333 8.73333 17.1667 8.5 17.3ZM3.35 15.25C3.35 15.5167 3.55 15.65 3.95 15.65L5.85 14.9C6.15 14.8333 6.3 14.6833 6.3 14.45L6.8 3.65C6.8 3.51667 6.56667 3.45 6.1 3.45H3.95C3.55 3.45 3.35 3.51667 3.35 3.65V15.25ZM5.75 32.2C6.35 32.2 6.76667 32.0667 7 31.8C7.26667 31.5333 7.4 31.2667 7.4 31C7.4 30.8 7.36667 30.7 7.3 30.7V19.45C7.4 19.3833 7.45 19.3333 7.45 19.3C7.45 19.2 7.33333 19.15 7.1 19.15H5C4.9 19.15 4.78333 19.1833 4.65 19.25C4.55 19.3167 4.48333 19.3833 4.45 19.45V32.05C4.48333 32.0833 4.55 32.1167 4.65 32.15C4.75 32.1833 4.86667 32.2 5 32.2H5.75ZM15.7832 1.05C15.7832 0.88333 16.4665 0.749998 17.8332 0.649999C19.1999 0.549998 20.5499 0.499998 21.8832 0.499998H24.0332C24.5665 0.499998 24.9999 0.699998 25.3332 1.1C25.6665 1.5 25.8499 2.01666 25.8832 2.65L26.3832 17.05L24.1332 20L28.1332 34.9L27.1832 36H24.2332L21.6832 20.45L19.1332 20.7L18.0832 36H15.7832V1.05ZM22.6832 16.75C22.8832 16.75 22.9832 16.65 22.9832 16.45V4L22.2332 3.25L18.7832 3.6L18.9332 16.95L22.6832 16.75ZM43 36H40.8L39 22.7L35 24.6L33.9 36H30.8L33.05 0.499998H40.95L43 36ZM38.35 2.9C38.35 2.7 38.25 2.6 38.05 2.6L35.9 3.1C35.7 3.2 35.6 3.36667 35.6 3.6V21.2C35.6 21.3667 35.7 21.45 35.9 21.45L37.75 21.15C37.95 21.15 38.05 21.05 38.05 20.85L38.35 2.9ZM50.6309 14.95L56.9809 16.6V33C56.9809 33.7 56.6309 34.3833 55.9309 35.05C55.2309 35.6833 54.5142 36 53.7809 36H46.6309V32.6H53.5809L52.3809 19.2L46.6309 17.7V2.85C46.6309 2.31667 46.8309 1.8 47.2309 1.3C47.6642 0.766665 48.1309 0.499998 48.6309 0.499998H56.9809V2.95L49.8809 3.9L50.6309 14.95ZM65.1863 36H61.4863V5.2L60.5863 2.8V0.499998H65.6363L65.1863 36ZM80.473 36H70.373V0.499998H74.073V30.75L74.823 31.9L80.473 32.55V36Z" fill="white"/>
</svg>
