<svg width="42" height="40" viewBox="0 0 42 40" fill="none" xmlns="http://www.w3.org/2000/svg">
<path d="M21 3.33333C14.2275 3.33333 8.75 8.55 8.75 15C8.75 23.75 21 36.6667 21 36.6667C21 36.6667 33.25 23.75 33.25 15C33.25 8.55 27.7725 3.33333 21 3.33333ZM21 19.1667C19.8397 19.1667 18.7269 18.7277 17.9064 17.9463C17.0859 17.1649 16.625 16.1051 16.625 15C16.625 13.8949 17.0859 12.8351 17.9064 12.0537C18.7269 11.2723 19.8397 10.8333 21 10.8333C22.1603 10.8333 23.2731 11.2723 24.0936 12.0537C24.9141 12.8351 25.375 13.8949 25.375 15C25.375 16.1051 24.9141 17.1649 24.0936 17.9463C23.2731 18.7277 22.1603 19.1667 21 19.1667Z" fill="#F8F8F8"/>
</svg>
