<svg width="340" height="57" viewBox="0 0 340 57" fill="none" xmlns="http://www.w3.org/2000/svg">
<path d="M11.1094 56.3906C7.18685 56.3906 4.35482 55.4141 2.61328 53.4609C0.888021 51.5078 0.0253906 48.3991 0.0253906 44.1348V39.9355H8.52148V45.3066C8.52148 46.2995 8.66797 47.0807 8.96094 47.6504C9.27018 48.2038 9.79915 48.4805 10.5479 48.4805C11.3291 48.4805 11.8662 48.2526 12.1592 47.7969C12.4684 47.3411 12.623 46.5924 12.623 45.5508C12.623 44.2324 12.4928 43.1338 12.2324 42.2549C11.972 41.3597 11.5163 40.5133 10.8652 39.7158C10.2305 38.902 9.34342 37.958 8.2041 36.8838L4.34668 33.2217C1.46582 30.5036 0.0253906 27.3949 0.0253906 23.8955C0.0253906 20.2334 0.871745 17.4421 2.56445 15.5215C4.27344 13.6009 6.73926 12.6406 9.96191 12.6406C13.9007 12.6406 16.6921 13.6904 18.3359 15.79C19.9961 17.8896 20.8262 21.0798 20.8262 25.3604H12.0859V22.4062C12.0859 21.8203 11.915 21.3646 11.5732 21.0391C11.2477 20.7135 10.8001 20.5508 10.2305 20.5508C9.54688 20.5508 9.04232 20.7461 8.7168 21.1367C8.40755 21.5111 8.25293 21.9993 8.25293 22.6016C8.25293 23.2038 8.41569 23.8548 8.74121 24.5547C9.06673 25.2546 9.70964 26.0602 10.6699 26.9717L15.626 31.7324C16.6188 32.6764 17.5303 33.6774 18.3604 34.7354C19.1904 35.777 19.8577 36.9977 20.3623 38.3975C20.8669 39.7809 21.1191 41.4736 21.1191 43.4756C21.1191 47.512 20.3704 50.6777 18.873 52.9727C17.3919 55.2513 14.804 56.3906 11.1094 56.3906ZM24 56V13.0312H41.1875V21.332H32.7402V29.7061H40.8457V37.7871H32.7402V47.626H41.749V56H24ZM54.127 56.3906C52.1901 56.3906 50.4242 56.0163 48.8291 55.2676C47.234 54.5189 45.9645 53.4121 45.0205 51.9473C44.0928 50.4661 43.6289 48.6514 43.6289 46.5029V35.7363H52.125V45.9902C52.125 46.7389 52.2715 47.3411 52.5645 47.7969C52.8737 48.2526 53.362 48.4805 54.0293 48.4805C55.3151 48.4805 55.958 47.6911 55.958 46.1123V13.0312H64.625V45.2578C64.625 47.5365 64.1774 49.514 63.2822 51.1904C62.387 52.8506 61.1501 54.1364 59.5713 55.0479C57.9925 55.943 56.1777 56.3906 54.127 56.3906ZM66.7734 56L70.9238 13.0312H85.499L89.5762 56H81.4463L80.8359 49.0664H75.6602L75.123 56H66.7734ZM76.2705 42.2061H80.1768L78.2969 20.3555H77.9062L76.2705 42.2061ZM103.932 56V13.0312H115.577C118.702 13.0312 120.973 13.7962 122.389 15.3262C123.821 16.8398 124.537 19.3464 124.537 22.8457V24.7256C124.537 26.7438 124.171 28.3796 123.438 29.6328C122.722 30.8861 121.624 31.708 120.143 32.0986C122.079 32.5869 123.373 33.7344 124.024 35.541C124.692 37.3314 125.025 39.5205 125.025 42.1084C125.025 44.8916 124.765 47.3249 124.244 49.4082C123.723 51.4915 122.779 53.111 121.412 54.2666C120.045 55.4222 118.1 56 115.577 56H103.932ZM112.33 29.2178H114.088C114.885 29.2178 115.398 28.9085 115.626 28.29C115.854 27.6715 115.968 26.931 115.968 26.0684V21.7471C115.968 20.3636 115.357 19.6719 114.137 19.6719H112.33V29.2178ZM113.185 48.4316C115.414 48.4316 116.529 47.3737 116.529 45.2578V39.8867C116.529 38.666 116.342 37.7057 115.968 37.0059C115.61 36.2897 114.926 35.9316 113.917 35.9316H112.33V48.3828C112.688 48.4154 112.973 48.4316 113.185 48.4316ZM127.857 56V13.0312H145.045V21.332H136.598V29.7061H144.703V37.7871H136.598V47.626H145.606V56H127.857ZM148.463 56V13.0312H161.549L165.162 39.2275L168.751 13.0312H181.959V56H174.098V25.043L169.166 56H161.451L156.227 25.043V56H148.463ZM201.441 56L196.144 13.0068H204.322L207.472 42.2549L210.279 13.0068H218.458L213.16 56H201.441ZM220.582 56V13.0312H228.883V56H220.582ZM232.301 56V13.0312H241.139L245.094 33.6123V13.0312H253.395V56H244.996L240.699 34.5156V56H232.301ZM257.203 56V13.0312H269.02C272.112 13.0312 274.439 13.8939 276.002 15.6191C277.564 17.3281 278.346 19.8346 278.346 23.1387V43.2559C278.346 47.3249 277.63 50.4661 276.197 52.6797C274.781 54.8932 272.291 56 268.727 56H257.203ZM265.846 48.4072H267.335C268.914 48.4072 269.703 47.6423 269.703 46.1123V23.9443C269.703 22.512 269.508 21.5924 269.117 21.1855C268.743 20.7624 267.97 20.5508 266.798 20.5508H265.846V48.4072ZM292.115 56.3906C288.681 56.3906 286.052 55.3571 284.229 53.29C282.423 51.2067 281.52 48.2038 281.52 44.2812V23.8711C281.52 20.1927 282.415 17.4014 284.205 15.4971C286.012 13.5928 288.648 12.6406 292.115 12.6406C295.582 12.6406 298.211 13.5928 300.001 15.4971C301.808 17.4014 302.711 20.1927 302.711 23.8711V44.2812C302.711 48.2038 301.799 51.2067 299.977 53.29C298.17 55.3571 295.549 56.3906 292.115 56.3906ZM292.188 48.4805C293.491 48.4805 294.142 47.2191 294.142 44.6963V23.7246C294.142 21.6087 293.507 20.5508 292.237 20.5508C290.805 20.5508 290.089 21.6331 290.089 23.7979V44.7451C290.089 46.0798 290.252 47.04 290.577 47.626C290.903 48.1956 291.44 48.4805 292.188 48.4805ZM316.725 56L320.875 13.0312H335.45L339.527 56H331.397L330.787 49.0664H325.611L325.074 56H316.725ZM326.222 42.2061H330.128L328.248 20.3555H327.857L326.222 42.2061ZM333.888 11.7373L322.291 9.44238V0.970703L333.888 6.29297V11.7373Z" fill="white"/>
</svg>
